# xmcd CD database file
#
# Track frame offsets:
#	150
#	38689
#	92397
#	136247
#	177432
#	220527
#	263987
#
# Disc length: 3926 seconds
#
# Revision: 0
# Processed by: cddbd v1.5.1PL0 Copyright (c) Steve Scherf et al.
# Submitted via: CDex 1.51
#
DISCID=550f5407
DTITLE=Don Menza And The Joe Haider Trio - Bilein
DYEAR=1998
DGENRE=Jazz
TTITLE0=Bilein
TTITLE1=It's April Again
TTITLE2=Broadbottom
TTITLE3=Karen's Birthday Waltz
TTITLE4=Processional
TTITLE5=Royal
TTITLE6=B-4-U Leave
EXTD=YEAR: 1998
EXTT0=
EXTT1=
EXTT2=
EXTT3=
EXTT4=
EXTT5=
EXTT6=
PLAYORDER=
